<?xml version="1.0" standalone="no"?>
<!DOCTYPE svg PUBLIC "-//W3C//DTD SVG 20010904//EN"
 "http://www.w3.org/TR/2001/REC-SVG-20010904/DTD/svg10.dtd">
<svg version="1.0" xmlns="http://www.w3.org/2000/svg"
 width="934.000000pt" height="934.000000pt" viewBox="0 0 934.000000 934.000000"
 preserveAspectRatio="xMidYMid meet">
<metadata>
Created by potrace 1.14, written by Peter Selinger 2001-2017
</metadata>
<g transform="translate(0.000000,934.000000) scale(0.100000,-0.100000)"
fill="#000000" stroke="none">
<path d="M6745 9318 c-3 -7 -7 -49 -10 -93 -11 -176 -34 -272 -95 -400 -58
-122 -187 -227 -298 -242 -100 -14 -173 -17 -227 -11 -120 15 -132 19 -270 78
-177 76 -472 188 -537 204 -15 3 -40 11 -55 18 -15 6 -34 12 -42 14 -12 2 -47
11 -71 19 -70 21 -99 29 -115 32 -11 2 -38 8 -60 14 -22 6 -52 13 -67 15 -16
2 -40 6 -55 8 -16 2 -50 7 -78 11 -27 3 -63 8 -80 10 -161 22 -670 21 -810 -1
-16 -2 -50 -6 -75 -8 -52 -5 -104 -13 -175 -26 -27 -5 -66 -12 -85 -15 -19 -3
-43 -8 -52 -11 -9 -3 -25 -6 -35 -8 -22 -5 -184 -45 -198 -50 -5 -2 -13 -4
-17 -5 -4 -1 -27 -9 -50 -17 -24 -9 -47 -17 -53 -18 -10 -3 -54 -20 -85 -33
-8 -3 -18 -7 -22 -8 -5 -2 -9 -3 -10 -5 -2 -1 -10 -3 -18 -5 -21 -4 -157 -67
-275 -127 -281 -143 -515 -326 -711 -554 -54 -63 -184 -239 -184 -250 0 -3 -8
-18 -19 -32 -43 -61 -160 -316 -177 -387 -2 -5 -10 -35 -19 -65 -19 -64 -43
-169 -51 -220 -3 -19 -7 -46 -10 -60 -24 -142 -24 -513 1 -630 3 -14 8 -41 11
-60 3 -19 9 -51 14 -70 5 -19 11 -52 14 -74 4 -21 9 -42 12 -47 3 -5 7 -17 9
-26 7 -37 57 -178 66 -187 5 -6 9 -16 9 -23 0 -20 111 -243 121 -243 5 0 9 -7
9 -15 0 -12 67 -120 95 -151 6 -7 19 -24 30 -40 70 -98 236 -274 336 -355 22
-19 49 -41 59 -49 9 -8 43 -33 73 -55 31 -22 56 -42 57 -45 0 -3 -24 -18 -52
-33 -29 -15 -80 -43 -113 -62 -33 -19 -67 -38 -75 -42 -16 -7 -66 -38 -135
-82 -22 -14 -43 -30 -47 -36 -5 -7 -8 -7 -8 0 0 7 -3 7 -8 0 -4 -5 -36 -30
-72 -54 -36 -25 -67 -48 -70 -51 -3 -3 -39 -33 -80 -67 -75 -61 -154 -140
-220 -221 -53 -64 -141 -209 -156 -257 -2 -5 -15 -41 -28 -80 -27 -76 -35
-109 -43 -170 -7 -61 -11 -299 -4 -310 3 -5 6 -17 7 -25 2 -8 4 -31 7 -51 2
-20 7 -41 10 -46 3 -5 8 -20 11 -34 3 -13 7 -33 10 -45 13 -60 124 -281 160
-321 6 -6 29 -33 51 -59 34 -41 72 -79 164 -164 9 -8 43 -35 76 -60 33 -25 62
-49 63 -54 2 -4 -20 -25 -50 -45 -52 -35 -168 -121 -178 -131 -3 -3 -34 -30
-70 -60 -62 -53 -145 -136 -179 -180 -9 -12 -26 -33 -39 -48 -33 -39 -107
-161 -137 -228 -29 -63 -71 -201 -82 -272 -13 -76 -7 -417 7 -417 1 0 3 -9 5
-20 2 -11 5 -29 8 -40 24 -97 32 -124 44 -152 7 -18 13 -35 14 -38 0 -8 91
-180 98 -185 3 -3 20 -25 36 -49 62 -92 243 -259 342 -317 18 -10 33 -22 33
-26 0 -4 5 -8 11 -8 6 0 38 -16 70 -35 33 -19 67 -35 75 -35 7 0 14 -4 14 -10
0 -5 4 -10 9 -10 5 0 47 -17 93 -38 45 -21 110 -49 143 -62 33 -12 74 -28 90
-35 36 -16 317 -102 355 -109 8 -2 22 -6 30 -9 8 -3 40 -11 70 -17 30 -5 66
-13 80 -15 71 -15 119 -24 160 -30 25 -3 59 -9 75 -12 17 -3 44 -7 60 -8 17
-2 30 -4 30 -5 0 -1 34 -5 140 -15 33 -3 89 -8 125 -12 150 -15 739 -8 920 12
109 12 168 18 195 21 17 1 48 5 70 9 22 3 83 13 135 21 255 40 641 132 875
209 44 15 87 28 95 30 24 5 223 74 245 84 11 6 52 22 90 37 39 15 90 36 115
46 117 52 177 80 195 90 11 6 56 30 101 54 44 23 121 66 170 96 49 30 100 60
114 68 14 8 27 18 30 21 3 3 39 29 81 57 42 28 83 58 92 66 9 9 20 16 25 16 6
0 12 3 14 8 2 4 39 36 83 72 130 106 315 284 405 390 25 29 53 62 63 73 10 12
44 60 75 107 31 47 59 87 62 90 27 27 170 333 185 395 8 38 19 71 24 80 3 6 6
15 8 20 7 33 12 54 21 90 6 22 13 56 16 75 3 19 8 46 11 60 15 73 26 212 27
330 1 99 -9 281 -18 325 -2 11 -7 35 -10 54 -6 34 -7 39 -23 104 -5 20 -7 37
-4 37 3 0 1 6 -4 13 -6 6 -16 30 -22 52 -7 22 -15 47 -18 55 -4 8 -7 17 -8 20
0 3 -9 20 -18 37 -10 18 -15 33 -11 33 4 0 1 6 -5 13 -6 8 -25 40 -42 73 -17
32 -34 61 -38 64 -3 3 -20 25 -36 49 -36 54 -151 172 -220 227 -66 52 -141
104 -151 104 -4 0 -15 6 -23 14 -25 22 -148 86 -164 86 -9 0 -17 4 -19 8 -4
11 -160 72 -248 97 -69 20 -165 42 -220 51 -19 3 -48 8 -65 10 -117 21 -219
27 -440 27 -252 1 -598 -18 -715 -39 -14 -2 -47 -7 -75 -9 -27 -3 -59 -7 -70
-10 -11 -2 -42 -7 -70 -10 -27 -4 -59 -9 -70 -12 -11 -4 -33 -7 -50 -8 -30 -3
-56 -7 -170 -27 -33 -5 -71 -12 -85 -14 -14 -3 -47 -9 -75 -14 -27 -5 -63 -12
-80 -15 -56 -9 -90 -16 -160 -31 -211 -45 -450 -92 -505 -99 -19 -3 -47 -8
-62 -11 -15 -3 -49 -8 -75 -10 -27 -3 -66 -7 -88 -9 -145 -17 -417 -22 -515
-11 -196 23 -329 97 -387 214 -25 51 -28 67 -27 157 0 84 6 142 15 153 1 1 2
5 3 10 7 28 31 82 38 82 4 0 8 5 8 11 0 6 7 17 15 25 8 8 20 23 27 32 7 10 28
29 46 44 l33 27 52 -18 c92 -34 243 -76 327 -91 3 -1 23 -6 45 -11 22 -6 54
-12 70 -15 17 -2 53 -8 80 -14 48 -9 127 -20 190 -26 17 -1 62 -6 100 -10 39
-4 198 -7 355 -8 262 0 367 5 475 19 22 3 57 8 77 11 71 9 94 13 177 28 101
19 318 74 343 87 10 5 18 8 18 5 0 -5 163 53 232 82 25 11 49 18 52 15 3 -4 6
-1 6 5 0 7 7 12 15 12 9 0 27 7 40 16 14 9 25 12 25 8 0 -5 4 -4 8 2 4 6 32
23 62 38 30 15 71 37 90 48 19 12 44 26 55 32 162 88 420 305 550 461 28 33
52 62 55 65 3 3 17 21 30 40 13 19 27 37 31 40 12 9 119 179 119 189 0 5 4 11
9 13 16 6 147 284 157 333 2 11 8 29 13 40 8 19 28 87 36 124 2 9 10 45 19 81
8 36 17 85 21 110 3 25 8 56 11 70 26 133 14 525 -21 676 -2 10 -11 51 -20 91
-8 39 -25 98 -36 130 -11 32 -21 65 -24 73 -20 75 -132 303 -196 400 -21 32
-39 64 -39 69 0 6 12 8 28 6 105 -17 356 -23 485 -11 96 8 251 40 332 66 33
11 63 20 67 21 15 1 155 72 203 102 145 92 266 227 330 372 34 76 70 234 70
303 l0 54 -270 89 c-148 50 -277 92 -285 94 -24 6 -844 277 -853 282 -4 2 -9
-2 -12 -9z m-2355 -1463 c268 -28 486 -167 642 -411 61 -96 130 -263 142 -348
4 -21 8 -41 10 -45 18 -30 27 -343 13 -456 -8 -69 -24 -160 -27 -160 -1 0 -3
-11 -6 -24 -8 -44 -55 -176 -83 -232 -56 -113 -157 -239 -251 -314 -79 -63
-218 -132 -305 -152 -38 -8 -50 -11 -50 -13 0 -5 -172 -20 -250 -22 -15 0
-124 13 -143 17 -150 35 -230 68 -334 138 -124 83 -245 228 -314 375 -37 80
-40 89 -72 192 -16 51 -34 157 -37 217 -1 28 -5 55 -7 60 -6 10 -1 211 6 283
5 46 24 142 40 200 2 8 14 42 26 75 12 33 24 69 27 80 4 11 14 31 25 44 10 13
18 28 18 33 0 4 24 41 52 81 60 83 154 179 219 222 24 16 46 33 49 36 3 4 15
9 28 13 12 4 22 12 22 17 0 5 9 9 19 9 11 0 23 4 26 10 3 5 44 21 90 35 99 31
113 33 184 40 30 2 55 6 57 7 4 4 120 0 184 -7z m1191 -5060 c126 -13 215 -41
318 -100 31 -17 85 -69 117 -111 33 -43 75 -165 62 -181 -5 -7 -5 -13 0 -17 5
-3 8 -18 6 -33 -2 -16 -6 -42 -8 -58 -6 -53 -18 -100 -28 -112 -6 -7 -7 -13
-4 -13 9 0 -46 -104 -56 -108 -5 -2 -8 -9 -8 -16 0 -11 -131 -149 -174 -184
-45 -36 -222 -143 -296 -179 -96 -46 -266 -114 -292 -116 -10 -1 -18 -5 -18
-9 0 -4 -3 -7 -7 -7 -5 1 -10 0 -13 -1 -3 -1 -12 -3 -20 -5 -8 -1 -35 -8 -60
-16 -66 -18 -86 -24 -132 -34 -13 -3 -32 -7 -43 -10 -118 -28 -261 -54 -335
-61 -19 -2 -48 -6 -65 -9 -207 -38 -768 -38 -955 1 -14 3 -34 6 -45 8 -72 10
-324 83 -335 96 -3 3 -21 12 -40 20 -78 31 -194 124 -225 180 -28 50 -53 106
-63 137 -10 32 -27 158 -25 198 2 89 29 207 64 279 l24 49 170 2 c94 2 184 5
200 8 17 3 48 8 70 12 68 10 99 16 135 25 19 5 52 11 72 14 21 3 57 10 80 15
24 6 54 12 68 14 14 3 45 10 70 17 25 7 56 14 70 17 14 2 39 8 55 13 84 27
521 138 605 154 14 2 79 16 145 30 66 14 136 28 155 31 19 3 46 8 60 10 14 3
36 7 50 10 14 3 36 7 50 10 14 2 52 7 85 11 33 3 62 8 66 9 3 2 52 7 110 10
57 4 105 8 106 9 4 3 183 -3 234 -9z"/>
</g>
</svg>
