<?xml version="1.0" encoding="UTF-8" standalone="no"?>
<svg
   xmlns:dc="http://purl.org/dc/elements/1.1/"
   xmlns:cc="http://creativecommons.org/ns#"
   xmlns:rdf="http://www.w3.org/1999/02/22-rdf-syntax-ns#"
   xmlns:svg="http://www.w3.org/2000/svg"
   xmlns="http://www.w3.org/2000/svg"
   viewBox="0 0 816 1056"
   height="1056"
   width="816"
   xml:space="preserve"
   id="svg2"
   version="1.1"><metadata
     id="metadata8"><rdf:RDF><cc:Work
         rdf:about=""><dc:format>image/svg+xml</dc:format><dc:type
           rdf:resource="http://purl.org/dc/dcmitype/StillImage" /></cc:Work></rdf:RDF></metadata><defs
     id="defs6"><clipPath
       id="clipPath18"
       clipPathUnits="userSpaceOnUse"><path
         style="clip-rule:evenodd"
         id="path16"
         d="M 9.12e-6,0 H 612.00001 V 792 H 9.12e-6 Z" /></clipPath><clipPath
       id="clipPath30"
       clipPathUnits="userSpaceOnUse"><path
         style="clip-rule:evenodd"
         id="path28"
         d="M 9.12e-6,0 H 612.00001 V 792 H 9.12e-6 Z" /></clipPath><clipPath
       id="clipPath42"
       clipPathUnits="userSpaceOnUse"><path
         style="clip-rule:evenodd"
         id="path40"
         d="M 9.12e-6,0 H 612.00001 V 792 H 9.12e-6 Z" /></clipPath><clipPath
       id="clipPath54"
       clipPathUnits="userSpaceOnUse"><path
         style="clip-rule:evenodd"
         id="path52"
         d="M 9.12e-6,0 H 612.00001 V 792 H 9.12e-6 Z" /></clipPath><clipPath
       id="clipPath62"
       clipPathUnits="userSpaceOnUse"><path
         style="clip-rule:evenodd"
         id="path60"
         d="M 9.12e-6,0 H 612.00001 V 792 H 9.12e-6 Z" /></clipPath></defs><g
     transform="matrix(1.3333333,0,0,-1.3333333,0,1056)"
     id="g10"><g
       id="g12"><g
         clip-path="url(#clipPath18)"
         id="g14"><text
           id="text22"
           style="font-variant:normal;font-weight:normal;font-size:10.56000042px;font-family:SimSun;-inkscape-font-specification:SimSun;writing-mode:lr-tb;fill:#000000;fill-opacity:1;fill-rule:nonzero;stroke:none"
           transform="matrix(1,0,0,-1,75.024,709.42)"><tspan
             id="tspan20"
             y="0"
             x="0 5.2800002 10.56 15.84 21.120001 26.4 31.563841 36.843842 42.12384 47.403839 52.56768 57.847679 63.127682 68.407677 73.571518">Nowoczesna aran</tspan></text>
</g></g><g
       id="g24"><g
         clip-path="url(#clipPath30)"
         id="g26"><text
           id="text34"
           style="font-variant:normal;font-weight:normal;font-size:10.56000042px;font-family:SimSun;-inkscape-font-specification:SimSun;writing-mode:lr-tb;fill:#000000;fill-opacity:1;fill-rule:nonzero;stroke:none"
           transform="matrix(1,0,0,-1,153.86,709.42)"><tspan
             id="tspan32"
             y="0"
             x="0">齛</tspan></text>
</g></g><g
       id="g36"><g
         clip-path="url(#clipPath42)"
         id="g38"><text
           id="text46"
           style="font-variant:normal;font-weight:normal;font-size:10.56000042px;font-family:SimSun;-inkscape-font-specification:SimSun;writing-mode:lr-tb;fill:#000000;fill-opacity:1;fill-rule:nonzero;stroke:none"
           transform="matrix(1,0,0,-1,164.42,709.42)"><tspan
             id="tspan44"
             y="0"
             x="0 5.1638398 10.44384 15.72384 21.003839 26.167681 31.33152 36.611519 41.891521 47.17152 52.451519 57.731522 62.895359 68.175362 73.45536 78.735359 83.8992 89.179199">cja Twojego ogrodu</tspan></text>
</g></g><g
       id="g48"><g
         clip-path="url(#clipPath54)"
         id="g50" /></g><g
       id="g56"><g
         clip-path="url(#clipPath62)"
         id="g58" /></g></g></svg>